<?xml version="1.0" encoding="UTF-8" standalone="no"?>
<!-- Created with Inkscape (http://www.inkscape.org/) -->

<svg
   xmlns:dc="http://purl.org/dc/elements/1.1/"
   xmlns:cc="http://creativecommons.org/ns#"
   xmlns:rdf="http://www.w3.org/1999/02/22-rdf-syntax-ns#"
   xmlns:svg="http://www.w3.org/2000/svg"
   xmlns="http://www.w3.org/2000/svg"
   xmlns:sodipodi="http://sodipodi.sourceforge.net/DTD/sodipodi-0.dtd"
   xmlns:inkscape="http://www.inkscape.org/namespaces/inkscape"
   id="svg3004"
   version="1.1"
   inkscape:version="0.48.5 r10040"
   width="20"
   height="20"
   xml:space="preserve"
   sodipodi:docname="ZzOutline.svg"><metadata
     id="metadata3010"><rdf:RDF><cc:Work
         rdf:about=""><dc:format>image/svg+xml</dc:format><dc:type
           rdf:resource="http://purl.org/dc/dcmitype/StillImage" /><dc:title></dc:title></cc:Work></rdf:RDF></metadata><defs
     id="defs3008"><clipPath
       clipPathUnits="userSpaceOnUse"
       id="clipPath3022"><path
         d="M 0,16 16,16 16,0 0,0 0,16 z"
         id="path3024" /></clipPath><clipPath
       clipPathUnits="userSpaceOnUse"
       id="clipPath3038"><path
         d="M 0,16 16,16 16,0 0,0 0,16 z"
         id="path3040" /></clipPath></defs><sodipodi:namedview
     pagecolor="#ffffff"
     bordercolor="#666666"
     borderopacity="1"
     objecttolerance="10"
     gridtolerance="10"
     guidetolerance="10"
     inkscape:pageopacity="0"
     inkscape:pageshadow="2"
     inkscape:window-width="1280"
     inkscape:window-height="685"
     id="namedview3006"
     showgrid="false"
     inkscape:zoom="23.95"
     inkscape:cx="2.5678497"
     inkscape:cy="10.067223"
     inkscape:window-x="0"
     inkscape:window-y="0"
     inkscape:window-maximized="1"
     inkscape:current-layer="g3012" /><g
     id="g3012"
     inkscape:groupmode="layer"
     inkscape:label="Zz16x16"
     transform="matrix(1.25,0,0,-1.25,0,20)"><g
       id="g3018"
       transform="translate(0.10020877,-0.56784969)"
       style="fill:#000000;fill-opacity:1"><g
         id="g3020"
         clip-path="url(#clipPath3022)"
         style="fill:#000000;fill-opacity:1"><g
           id="g3026"
           transform="translate(8.877,3.125)"
           style="fill:#000000;fill-opacity:1"><path
             d="m 0,0 -8.734,0 0,2.077 4.358,5.024 -2.214,0 0,-1.125 -2.03,0 0,3.118 8.587,0 0,-1.844 -4.579,-5.255 2.552,0 0,1.241 2.06,0 L 0,0 z"
             style="fill:#000000;stroke:#000000;stroke-width:0.25000000000000000;stroke-linecap:butt;stroke-linejoin:miter;stroke-miterlimit:4;stroke-opacity:1;stroke-dasharray:none;fill-opacity:1"
             id="path3028"
             inkscape:connector-curvature="0" /></g></g></g><g
       id="g3034"
       transform="translate(0.10020877,-0.56784969)"
       style="fill:#000000;fill-opacity:1"><g
         id="g3036"
         clip-path="url(#clipPath3038)"
         style="fill:#000000;fill-opacity:1"><g
           id="g3042"
           transform="translate(15.6807,8)"
           style="fill:#000000;fill-opacity:1"><path
             d="m 0,0 -6.618,0 0,1.464 3.304,3.539 -1.68,0 0,-0.794 -1.537,0 0,2.197 6.507,0 0,-1.299 -3.471,-3.702 1.933,0 0,0.875 L 0,2.28 0,0 z"
             style="fill:#000000;stroke:#000000;stroke-width:0.25000000000000000;stroke-linecap:butt;stroke-linejoin:miter;stroke-miterlimit:4;stroke-opacity:1;stroke-dasharray:none;fill-opacity:1"
             id="path3044"
             inkscape:connector-curvature="0" /></g></g></g></g></svg>