<?xml version="1.0" encoding="UTF-8" standalone="no"?>
<!-- Created with Inkscape (http://www.inkscape.org/) -->

<svg
   xmlns:dc="http://purl.org/dc/elements/1.1/"
   xmlns:cc="http://creativecommons.org/ns#"
   xmlns:rdf="http://www.w3.org/1999/02/22-rdf-syntax-ns#"
   xmlns:svg="http://www.w3.org/2000/svg"
   xmlns="http://www.w3.org/2000/svg"
   xmlns:sodipodi="http://sodipodi.sourceforge.net/DTD/sodipodi-0.dtd"
   xmlns:inkscape="http://www.inkscape.org/namespaces/inkscape"
   id="svg3078"
   version="1.1"
   inkscape:version="0.48.5 r10040"
   width="22.5"
   height="20"
   xml:space="preserve"
   sodipodi:docname="ZzOutline.svg"><metadata
     id="metadata3084"><rdf:RDF><cc:Work
         rdf:about=""><dc:format>image/svg+xml</dc:format><dc:type
           rdf:resource="http://purl.org/dc/dcmitype/StillImage" /><dc:title /></cc:Work></rdf:RDF></metadata><defs
     id="defs3082" /><sodipodi:namedview
     pagecolor="#ffffff"
     bordercolor="#666666"
     borderopacity="1"
     objecttolerance="10"
     gridtolerance="10"
     guidetolerance="10"
     inkscape:pageopacity="0"
     inkscape:pageshadow="2"
     inkscape:window-width="1280"
     inkscape:window-height="685"
     id="namedview3080"
     showgrid="true"
     inkscape:zoom="22.211765"
     inkscape:cx="9.7712817"
     inkscape:cy="10.084321"
     inkscape:window-x="173"
     inkscape:window-y="50"
     inkscape:window-maximized="0"
     inkscape:current-layer="g3086"
     units="pt"><inkscape:grid
       type="xygrid"
       id="grid5218"
       empspacing="5"
       visible="true"
       enabled="true"
       snapvisiblegridlinesonly="true"
       dotted="false"
       originx="0px"
       originy="0px"
       units="pt"
       spacingx="1pt"
       spacingy="1pt" /><inkscape:grid
       type="xygrid"
       id="grid5226"
       empspacing="5"
       visible="true"
       enabled="true"
       snapvisiblegridlinesonly="true"
       dotted="true"
       units="pt"
       spacingy="1pt"
       spacingx="1pt"
       originx="0.5pt"
       originy="0.5pt" /></sodipodi:namedview><g
     id="g3086"
     inkscape:groupmode="layer"
     inkscape:label="Bluetooth_Idle"
     transform="matrix(1.25,0,0,-1.25,0,20)"><g
       id="g3088"
       transform="translate(-11.9553,14.627987)"><path
         d="M 0,0 3.965,-3.607 0,-7.213 0.677,-7.955 5.457,-3.607 0.677,0.743 0,0 z"
         style="fill:#100f0d;fill-opacity:1;fill-rule:nonzero;stroke:none"
         id="path3090"
         inkscape:connector-curvature="0" /></g><g
       id="g3092"
       transform="translate(-7.7469,2.9144865)"><path
         d="M 0,0 5.265,4.607 1.264,8.106 5.265,11.607 0,16.214 0,0 z M 1.004,14 3.74,11.607 1.004,9.214 1.004,14 z m 0,-7 L 3.74,4.607 1.004,2.214 1.004,7 z"
         style="fill:#100f0d;fill-opacity:1;fill-rule:nonzero;stroke:none"
         id="path3094"
         inkscape:connector-curvature="0" /></g><path
       style="font-size:medium;font-style:normal;font-variant:normal;font-weight:normal;font-stretch:normal;text-indent:0;text-align:start;text-decoration:none;line-height:normal;letter-spacing:normal;word-spacing:normal;text-transform:none;direction:ltr;block-progression:tb;writing-mode:lr-tb;text-anchor:start;baseline-shift:baseline;color:#000000;fill:#000000;fill-opacity:1;stroke:none;stroke-width:0.80000001;marker:none;visibility:visible;display:inline;overflow:visible;enable-background:accumulate;font-family:Sans;-inkscape-font-specification:Sans"
       d="M -5.4862288,25.493856 1.0095339,31 l -6.4957627,0 0,4 13,0 0,-4 -6,-5 6,0 0,-4 -13,0 z m 1,-2.493856 11,0 0,2 L -1,25 l 7.5137712,6.544492 0,2.455508 -11,0 0,-2 8,0 -8,-7 z"
       id="path4626"
       inkscape:connector-curvature="0"
       sodipodi:nodetypes="cccccccccccccccccccccc" /><path
       style="fill:none;stroke:#000000;stroke-width:1;stroke-linecap:butt;stroke-linejoin:miter;stroke-miterlimit:4;stroke-opacity:1;stroke-dasharray:none"
       d="m 0.5,11.5 9,0 0,-2 -4,-5 4,0 0,-3 -9,0 0,2 4,5 -4,0 z"
       id="path5228"
       inkscape:connector-curvature="0"
       sodipodi:nodetypes="ccccccccccc" /><path
       style="fill:none;stroke:#000000;stroke-width:1;stroke-linecap:butt;stroke-linejoin:miter;stroke-miterlimit:4;stroke-opacity:1;stroke-dasharray:none"
       d="m 11.5,12.5 0,2 6,0 0,-2 -3,-3 3,0 0,-2 -6,0 0,2 3,3 z"
       id="path5230"
       inkscape:connector-curvature="0"
       sodipodi:nodetypes="ccccccccccc" /></g></svg>